<?xml version="1.0" encoding="utf-8"?>
<!-- Generator: Adobe Illustrator 26.3.1, SVG Export Plug-In . SVG Version: 6.00 Build 0)  -->
<svg version="1.1" id="a" xmlns="http://www.w3.org/2000/svg" xmlns:xlink="http://www.w3.org/1999/xlink" x="0px" y="0px"
	 viewBox="0 0 90 105" style="enable-background:new 0 0 90 105;" xml:space="preserve">
<style type="text/css">
	.st0{fill:#FFFFFF;}
</style>
<g>
	<path class="st0" d="M45,57.5c-15.1,0-27.3-12.2-27.3-27.3S29.9,2.9,45,2.9c15.1,0,27.3,12.2,27.3,27.3S60.1,57.5,45,57.5z M45,4.5
		C30.8,4.5,19.3,16,19.3,30.2S30.8,55.9,45,55.9s25.7-11.5,25.7-25.7S59.2,4.5,45,4.5z"/>
</g>
<g>
	<path class="st0" d="M45,102.1c-15.1,0-27.3-12.2-27.3-27.3S29.9,47.5,45,47.5c15.1,0,27.3,12.2,27.3,27.3S60.1,102.1,45,102.1z
		 M45,49.1c-14.2,0-25.7,11.5-25.7,25.7s11.5,25.7,25.7,25.7S70.7,89,70.7,74.8S59.2,49.1,45,49.1z"/>
</g>
</svg>
